# xmcd
#
# Track frame offsets: 
#        150
#        9425
#        22017
#        34277
#        45015
#        56297
#        68595
#        81470
#        90882
#        103930
#        119227
#        130732
#        145795
#        157070
#        168912
#        179195
#        196287
#        207465
#        219510
#        238665
#
# Disc length: 3324 seconds
#
# Revision: 0
# Processed by: cddbd v1.5.1PL2 Copyright (c) Steve Scherf et al.
# Submitted via: ExactAudioCopy v0.95b4
#
DISCID=1b0cfa14
DTITLE=Various Artist - Southern Nights
DYEAR=1998
DGENRE=Country
TTITLE0=Frankie Laine - Rawhide
TTITLE1=Leroy van Dyke - The Auctioneer
TTITLE2=Johnny Cash - Fulsom Prison Blues
TTITLE3=Waylon Jennings - Dream Baby
TTITLE4=Joe Stampley - Soul Song
TTITLE5=Faron Young - Country Girl
TTITLE6=Billie Jo Spears - Dallas
TTITLE7=Jeannie C. Riley - The Girl Most Likely
TTITLE8=Jo Anne Steele - Love on Borrowed Time
TTITLE9=Diana Trask - I Fall to Pieces
TTITLE10=Patsy Cline - Walkin' After Midnight
TTITLE11=Bill Anderson - Deck of Cards
TTITLE12=Hank Locklin - Send Me the Pillow You Dream on
TTITLE13=Roy Clark - The Most Beautiful Girl in the World
TTITLE14=Gene Autry - San Antonio Rose
TTITLE15=Glen Campbell - Southern Nights (Live)
TTITLE16=Hank Thompsom - Rednecks, White Socks and Blue Ribbon Beer
TTITLE17=Waylon Jennings - Don't Think Twice, It's Allright
TTITLE18=Bobby Bare - Me and Bobby McGee
TTITLE19=Roger Miller - King of the Road
EXTD=
EXTT0=
EXTT1=
EXTT2=
EXTT3=
EXTT4=
EXTT5=
EXTT6=
EXTT7=
EXTT8=
EXTT9=
EXTT10=
EXTT11=
EXTT12=
EXTT13=
EXTT14=
EXTT15=
EXTT16=
EXTT17=
EXTT18=
EXTT19=
PLAYORDER=
